<svg width="640" height="230" viewBox="0 0 640 230" xmlns="http://www.w3.org/2000/svg" role="img" aria-label="Top languages by solved problems: Go 382, TypeScript 245, Rust 157, Python 114, Java 84">
  <style>
    text { font-family: -apple-system, BlinkMacSystemFont, "Segoe UI", Helvetica, Arial, sans-serif; }
    .title { font-size: 15px; font-weight: 600; fill: #1f2328; }
    .label { font-size: 13px; fill: #1f2328; }
    .count { font-size: 13px; fill: #57606a; }
    .track { fill: #eaeef2; }
    @media (prefers-color-scheme: dark) {
      .title { fill: #e6edf3; }
      .label { fill: #e6edf3; }
      .count { fill: #8b949e; }
      .track { fill: #30363d; }
    }
  </style>
  <text x="0" y="24" class="title">Top 5 Languages</text>
    <g transform="translate(0,44)">
      <text x="106" y="22.0" text-anchor="end" class="label">Go</text>
      <rect x="118" y="9.0" width="452" height="16" rx="8" class="track"/>
      <rect x="118" y="9.0" width="452" height="16" rx="8" fill="#00ADD8"/>
      <text x="580" y="22.0" class="count">382</text>
    </g>
    <g transform="translate(0,78)">
      <text x="106" y="22.0" text-anchor="end" class="label">TypeScript</text>
      <rect x="118" y="9.0" width="452" height="16" rx="8" class="track"/>
      <rect x="118" y="9.0" width="290" height="16" rx="8" fill="#3178C6"/>
      <text x="418" y="22.0" class="count">245</text>
    </g>
    <g transform="translate(0,112)">
      <text x="106" y="22.0" text-anchor="end" class="label">Rust</text>
      <rect x="118" y="9.0" width="452" height="16" rx="8" class="track"/>
      <rect x="118" y="9.0" width="186" height="16" rx="8" fill="#DEA584"/>
      <text x="314" y="22.0" class="count">157</text>
    </g>
    <g transform="translate(0,146)">
      <text x="106" y="22.0" text-anchor="end" class="label">Python</text>
      <rect x="118" y="9.0" width="452" height="16" rx="8" class="track"/>
      <rect x="118" y="9.0" width="135" height="16" rx="8" fill="#3572A5"/>
      <text x="263" y="22.0" class="count">114</text>
    </g>
    <g transform="translate(0,180)">
      <text x="106" y="22.0" text-anchor="end" class="label">Java</text>
      <rect x="118" y="9.0" width="452" height="16" rx="8" class="track"/>
      <rect x="118" y="9.0" width="99" height="16" rx="8" fill="#B07219"/>
      <text x="227" y="22.0" class="count">84</text>
    </g>
</svg>
